<?xml version="1.0" encoding="UTF-8"?>
<svg id="Ebene_1" data-name="Ebene 1" xmlns="http://www.w3.org/2000/svg" viewBox="0 0 400 140">
  <defs>
    <style>
      .cls-1 {
        fill: #902122;
      }

      .cls-2 {
        fill: #424242;
      }

      .cls-3 {
        fill: #c7c5c6;
      }
    </style>
  </defs>
  <path class="cls-1" d="M81.25,30.66c-.19-.2-.27-.46-.23-.79,3.92-3.08,12.21-12.87,3.92-16.43-4.95-2.13-8.29-1.81-10,.97l-1.22,1.85-14.63,20.71c-.22.31-.22.62.01.93l1.51,2.05c.23.31.17.55-.19.7l-7.26,3.17c-.29.12-.62.03-.81-.22l-.9-1.21c-.18-.24-.45-.38-.75-.38h-4.86c-.37,0-.56.19-.56.56v3.16c0,.62-.3,1-.91,1.15l-7.39,1.77c-.64.15-.96-.1-.96-.77V12.43c0-.17.08-.26.25-.26h8.76c.17,0,.26.09.26.26v9.85s.01,1.32.01,1.32l.08,9.75c0,.41.19.6.58.57l5.13-.45c.37-.03.69-.22.89-.5l10.59-15.28c.18-.05.55-.62,1.11-1.71l2.56-3.36c.19-.25.45-.4.77-.44,1.65-.2,3.16-.29,4.53-.26,1.04.02,2.54-.14,4.51-.49,3.79-.67,7.45-.33,10.98,1.03,2.4.93,3.61,2.51,3.64,4.76.07,4.78-5.85,10.69-9.42,13.44Z"/>
  <path class="cls-2" d="M302.85,32.89c6.93,0,10.96-.01,12.11-.02.25-.01.38-.14.38-.4V12.66c0-.65.32-.97.97-.97h6.35c.63,0,.95.32.95.95v49.51c0,.17-.09.26-.26.26h-7.75c-.16,0-.24-.08-.24-.24v-21.29c0-.37-.19-.57-.56-.59-1.48-.09-5.46-.13-11.95-.13s-10.46.05-11.94.13c-.37.02-.56.22-.56.59v21.29c.01.16-.07.24-.23.24h-7.75c-.18,0-.26-.08-.26-.25l-.02-49.51c0-.64.31-.95.95-.95h6.35c.64-.01.97.32.97.96v19.81c0,.26.13.4.39.4,1.14.01,5.18.02,12.1.02Z"/>
  <path class="cls-3" d="M81.02,29.87c-.04.33.04.59.23.79-1.33,1.28-2.76,2.46-4.31,3.55-1.61,1.12-3.45.73-5.04,1.82-2.99,2.05-6.13,3.83-9.4,5.34-.11.05-.19.02-.26-.07l-.15-.21c-.2-.27-.16-.48.13-.65,4.42-2.6,8.33-5.15,11.74-7.64,1.8-1.32,3.47-2.95,5.01-4.89,1.85-2.33,2.8-4.39,2.86-6.2.11-3.25-2.59-5.06-8.11-5.45l1.22-1.85c4.12-.59,7.46.01,10.03,1.8,1.14.79,1.54,3.31,1.16,4.72-.66,2.46-2.11,4.72-4.34,6.79-1.27,1.17-3.18,2.73-5.75,4.7-.18.14-.21.31-.1.51l.21.36c.03.06.08.07.15.03l4.72-3.45Z"/>
  <path class="cls-3" d="M63.68,15.98c-.56,1.09-.93,1.66-1.11,1.71-3.7.93-7.15,1.96-10.34,3.09-2.36.83-4.67,1.77-6.93,2.82l-.02-1.32c5.81-2.96,11.94-5.06,18.4-6.3Z"/>
  <path class="cls-2" d="M136.48,36.4c-.27,0-.48.22-.48.49l.1,25.49c0,.34-.17.51-.51.51l-6.51.02c-.32,0-.48-.16-.48-.49l-.1-25.52c0-.33-.16-.49-.49-.49l-4.1.02c-.75,0-1.13-.37-1.13-1.12v-3.75c-.02-.78.37-1.16,1.14-1.17h3.94c.33-.01.51-.17.54-.49.07-.66.12-1.74.15-3.25.17-10.61,10.56-10.9,18.35-9.4.23.05.35.19.35.42l.02,5.35c0,.12-.06.18-.18.18l-6.52.02c-2.1.01-3.46,1.02-4.07,3.02l-.4,1.32c-.53,1.74.11,2.61,1.93,2.6l7.58-.03c.47,0,.71.23.71.71l.02,4.75c0,.52-.26.78-.77.78l-9.09.03Z"/>
  <path class="cls-2" d="M161.53,36.41c-.26,0-.48.22-.48.49l.04,25.51c0,.34-.17.51-.51.51h-6.51c-.32.01-.48-.15-.48-.48l-.04-25.55c0-.32-.16-.49-.49-.48h-4.11c-.75,0-1.12-.37-1.12-1.12v-3.76c0-.77.38-1.16,1.15-1.16h3.94c.33-.01.51-.17.54-.49.07-.65.13-1.74.16-3.25.19-10.61,10.59-10.88,18.39-9.36.23.05.35.19.35.42v5.35c.01.12-.05.18-.17.18h-6.53c-2.11.02-3.46,1.02-4.08,3.02l-.4,1.32c-.54,1.74.1,2.61,1.92,2.61h7.59c.47-.01.71.22.71.7v4.76c0,.51-.25.77-.76.77h-9.11Z"/>
  <path class="cls-2" d="M376.61,36.41c-.27,0-.48.22-.48.49v25.5c0,.34-.17.51-.51.51h-6.51c-.32,0-.48-.16-.48-.49v-25.54c0-.33-.16-.49-.49-.49h-4.11c-.75,0-1.12-.37-1.12-1.12v-3.76c0-.77.39-1.16,1.16-1.16h3.94c.33,0,.51-.16.54-.48.07-.65.13-1.74.16-3.25.21-10.61,10.61-10.86,18.4-9.33.23.05.35.19.35.42v5.35c0,.12-.06.18-.18.18h-6.53c-2.1,0-3.46,1-4.08,3l-.4,1.32c-.54,1.74.1,2.61,1.92,2.61h7.58c.47,0,.71.24.71.71v4.76c0,.51-.26.77-.77.77h-9.1Z"/>
  <path class="cls-2" d="M100.04,25.01c0,.44-.36.8-.8.8l-5.4-.02c-.45,0-.8-.36-.8-.8l.02-6.56c0-.44.36-.8.8-.8l5.4.02c.45,0,.8.36.8.8l-.02,6.56Z"/>
  <path class="cls-2" d="M114.31,25.03c0,.42-.34.77-.77.77h-5.7c-.42-.02-.77-.36-.77-.78v-6.6c.02-.42.36-.77.78-.77h5.7c.42.02.77.36.77.78v6.6Z"/>
  <path class="cls-1" d="M16.94,50.58c2.48,1.55,6.12,2.36,10.93,2.43-4.81.75-8.6.48-11.36-.82-8.8-4.16-.87-12.91,3.56-16.76,3.04-2.64,6.37-5.11,9.98-7.42.09-.06.17-.05.24.04.09.11.08.2-.02.27-5.63,4-11.34,8.58-14.67,14.39-1.78,3.1-1.33,5.72,1.34,7.87Z"/>
  <path class="cls-3" d="M35.96,50.25c-.32.39-.31.59.03.61-1.51.12-2.06,1.07-3.17,1.45-1.69.59-3.34.82-4.94.7-4.81-.07-8.45-.88-10.93-2.43-1.11-3.39-1.16-5.78-.17-7.19,1.03-1.48,1.92-3.11,3.12-4.25,2.81-2.67,4.75-4.43,5.8-5.3,2.89-2.39,5.86-4.38,8.91-5.96.41-.21.61-.09.62.38.01.31-.21.62-.66.93-6.2,4.26-10.1,7.45-11.69,9.56-1.44,1.91-2.31,3.8-2.6,5.68-.46,2.92,2.83,4.73,5.2,5.33,1.48.37,4.97.54,10.48.49Z"/>
  <path class="cls-2" d="M181.91,33.94c.11-.07.44-.47.98-1.21,2.9-3.96,11.84-3.61,15.95-2.8,3.15.62,5.31,2.1,6.47,4.43.62,1.24.94,3.58.95,7.03.03,7.13.03,14.12.02,20.95,0,.34-.17.51-.52.51h-6.47c-.42,0-.63-.21-.63-.63,0-8.27-.04-15.12-.08-20.55-.03-3.41-1.76-5.27-5.21-5.56-4.12-.36-9.78-.34-11.05,4.34-.14.51-.21,2.31-.2,5.42,0,5.62,0,11.1,0,16.45,0,.37-.18.55-.55.55h-6.57c-.35,0-.53-.18-.53-.53v-31.49c0-.7.35-1.05,1.06-1.05h4.61c.69,0,1.06.35,1.1,1.04l.13,2.86c.02.35.2.42.53.23Z"/>
  <path class="cls-2" d="M218.99,43.83l14.8-.24c.22,0,.39-.18.38-.39l-.03-2.26c-.05-2.8-2.61-5.03-5.73-4.98l-4.28.06c-3.12.05-5.61,2.36-5.57,5.16l.04,2.26c0,.22.18.39.39.39ZM221.06,49.09c-2.24,0-3.04,1.07-2.4,3.22l.16.52c.68,2.29,2.27,3.55,4.77,3.78,5.71.53,10.87.33,15.49-.62.79-.16,1.19.16,1.19.97v4.24c0,.8-.4,1.26-1.19,1.38-5.38.83-10.93,1.06-16.65.71-5.79-.35-11.17-2.99-11.34-9.63-.03-1.41,0-5.99.06-13.76.05-5.16,2.57-8.37,7.56-9.62,8.01-2.01,22.2-1.63,22.75,9.77.14,2.89.2,5.49.18,7.8-.01.83-.42,1.24-1.25,1.24h-19.32"/>
  <path class="cls-2" d="M253.78,34.39c0,.24.31.32.43.11,1.38-2.45,3.55-3.95,6.52-4.51,2.45-.47,4.26-.65,5.43-.56.38.03.67.34.67.71v5.24c0,.52-.26.77-.78.75-4.03-.14-8.62.35-10.81,4.12-.59,1.02-.89,2.69-.9,5,0,6.9,0,12.61.02,17.12,0,.35-.18.53-.53.53h-6.51c-.32,0-.48-.16-.48-.48v-31.58c0-.65.33-.97.98-.97h4.79c.78,0,1.17.39,1.17,1.16v3.35Z"/>
  <path class="cls-2" d="M353.08,41.05c0-2.78-2.26-5.04-5.04-5.04h-6.14c-2.78,0-5.04,2.26-5.04,5.04v10.76c0,2.78,2.26,5.04,5.04,5.04h6.14c2.78,0,5.04-2.26,5.04-5.04v-10.76ZM360.66,52.97c0,5.7-4.6,10.33-10.3,10.34l-10.82.02c-5.7.01-10.33-4.6-10.34-10.3l-.02-13.1c0-5.7,4.6-10.33,10.3-10.34l10.82-.02c5.7-.01,10.33,4.6,10.34,10.3l.02,13.1"/>
  <path class="cls-2" d="M112.6,59.23c-.02-.34-.2-.42-.53-.23-.12.07-.44.47-.98,1.21-2.9,3.95-11.83,3.59-15.93,2.78-3.15-.62-5.3-2.1-6.45-4.43-.62-1.24-.94-3.58-.95-7.02-.02-7.12-.02-14.09,0-20.91,0-.34.18-.51.52-.51h6.46c.42,0,.63.21.63.63.01,8.26.03,15.1.06,20.52.03,3.41,1.76,5.26,5.2,5.55,4.11.37,9.76.35,11.03-4.32.14-.5.21-2.31.21-5.41v-16.42c0-.37.19-.55.55-.55h6.56c.36.01.53.18.53.53l-.03,31.44c0,.7-.35,1.05-1.06,1.05h-4.6c-.69,0-1.06-.35-1.1-1.04l-.12-2.86Z"/>
  <path class="cls-2" d="M54.17,44.8l7.18-3.13c.24-.11.52-.03.68.18l15.21,20.58c.27.37.01.89-.45.89h-9.48c-.18,0-.34-.08-.45-.23l-12.91-17.44c-.22-.29-.11-.71.22-.85Z"/>
  <path class="cls-3" d="M52.66,45.48c.09.23-.04.49-.28.57l-5.87,2.07c-.23.08-.49-.04-.57-.27v-.04c-.1-.23.03-.49.26-.57l5.87-2.07c.23-.08.49.04.57.27v.04Z"/>
  <path class="cls-2" d="M35.99,50.86c-.34-.02-.35-.22-.03-.61l8.89-1.93c.3-.07.45.05.45.36v13.8c0,.57-.28.85-.85.85h-7.59c-.57,0-.86-.29-.86-.86v-11.61Z"/>
  <path class="cls-1" d="M220.08,87.04c0,.38-.3.68-.68.68h-1.7c-.37,0-.68-.31-.68-.68l.04-20.76c0-.38.3-.68.68-.68h1.7c.37,0,.68.31.68.68l-.04,20.76Z"/>
  <path class="cls-2" d="M232.88,83.28l-4.89-5.49c-.2-.23-.55-.25-.78-.05l-.12.11c-1.97,1.75-2.34,4.55-.83,6.24l.17.19c1.51,1.69,4.32,1.64,6.29-.11l.12-.11c.23-.2.25-.55.04-.78ZM228.82,74.48c.15.04.25.04.3.02.89-.49,1.62-1.02,2.19-1.6,1.25-1.29,1.09-3.89-.85-4.42-1.94-.53-3.39,1.62-2.98,3.37.19.79.55,1.62,1.06,2.49.03.05.12.09.28.14M230.6,76.95l4.4,4.4c.24.25.41.21.52-.12l1.48-4.8c.13-.41.41-.62.84-.62h.85c.65,0,.92.32.83.96-.31,2.21-1.1,4.35-2.36,6.4-.26.43-.21.82.14,1.17l2.53,2.53c.17.17.08.47-.16.52-1.91.4-3.41-.07-4.48-1.42-.24-.31-.51-.34-.82-.11-5.05,3.86-13.99,1.57-11.5-6.41.35-1.13,1.3-2.21,2.84-3.25.28-.19.36-.44.24-.75-.08-.21-.32-.69-.71-1.46-.65-1.27-.66-2.86-.01-4.77,1.29-3.81,7.66-4.06,9.21-.27,1.26,3.09-.83,5.75-3.69,7.11-.47.22-.52.52-.15.89"/>
  <path class="cls-1" d="M161.45,75.9c2.6,0,4.21-.02,4.8-.04.3,0,.53-.25.53-.55v-7.63c0-.3.2-.57.51-.66.6-.17,1.18-.13,1.72.12.16.08.27.37.31.89.06.65.09,3.67.08,9.06,0,5.39-.03,8.41-.09,9.06-.04.52-.15.81-.31.89-.54.25-1.12.29-1.72.12-.3-.09-.51-.36-.51-.66v-7.63c0-.3-.23-.54-.52-.55-.6-.03-2.2-.04-4.8-.04s-4.21,0-4.81.03c-.29.02-.52.26-.52.55v7.63c0,.31-.21.58-.51.66-.61.17-1.18.13-1.72-.12-.17-.07-.27-.37-.31-.89-.06-.65-.09-3.67-.09-9.06,0-5.38.04-8.4.09-9.06.05-.52.15-.81.32-.88.54-.26,1.11-.3,1.72-.12.3.08.51.35.51.66v7.63c0,.29.22.53.51.55.6.02,2.2.03,4.81.04Z"/>
  <path class="cls-1" d="M244.85,70.02l.08,6.84c0,.15.13.28.29.28l5.63-.07c2.04-.03,3.69-1.56,3.66-3.43v-.64c-.03-1.87-1.71-3.36-3.76-3.33l-5.62.07c-.16,0-.28.12-.28.28ZM244.87,80.02v6.61c0,.41-.2.62-.61.62h-1.39c-.56,0-.84-.28-.84-.85v-18.53c0-.43.21-.66.64-.68,5.53-.27,9.53.03,12,.88,1.01.35,1.72,1.25,2.12,2.69.94,3.39.63,7.09-3.43,8.29-.26.08-.32.23-.19.46l3.76,6.5c.43.75.21,1.17-.64,1.26l-.31.04c-.74.08-1.35-.26-1.82-1.01l-3.91-6.21c-.25-.4-.69-.64-1.16-.64h-3.64c-.39,0-.58.19-.58.57"/>
  <path class="cls-1" d="M190.08,74.23h-1.3c-.47,0-.85-.38-.85-.85v-.41c0-.56.28-.84.83-.84h1.37c.43,0,.65-.22.65-.65v-2.8c0-.61.3-.91.9-.91h1.03c.52,0,.94.42.94.93v2.83c0,.37.18.56.55.56h4.2c.43,0,.79.35.8.78,0,.11,0,.22-.01.35-.02.66-.36.99-1.03.99h-3.87c-.31,0-.55.24-.56.55-.13,5.03-.11,8,.06,8.92.24,1.35,1.66,1.83,4.25,1.44.77-.11,1.16.22,1.16,1.01v.4c0,.57-.28.9-.83,1-5.21.93-7.73-1.02-7.57-5.85.09-2.73.04-5.03-.15-6.92-.03-.35-.22-.53-.57-.53Z"/>
  <path class="cls-1" d="M290.16,74.74c-.03-.36-.22-.53-.56-.53h-1.3c-.46-.01-.84-.39-.84-.86v-.4c0-.56.28-.84.83-.84h1.37c.43.01.64-.21.64-.64v-2.79c.02-.6.32-.9.91-.9h1.03c.52.01.93.42.93.93v2.82c-.01.37.17.56.54.56h4.18c.43.02.78.36.79.79,0,.11,0,.23,0,.35-.02.66-.36.99-1.03.98h-3.85c-.3-.01-.55.23-.56.54-.14,5-.13,7.96.03,8.88.24,1.35,1.64,1.83,4.23,1.44.77-.11,1.15.23,1.15,1.01v.4c0,.57-.28.9-.83.99-5.19.91-7.69-1.04-7.52-5.84.1-2.72.05-5.01-.13-6.89Z"/>
  <path class="cls-1" d="M378.91,74.75c-.03-.36-.22-.53-.56-.53h-1.29c-.47-.01-.85-.39-.84-.86v-.41c0-.56.28-.83.83-.83h1.36c.43.01.65-.21.65-.64v-2.78c.02-.6.32-.9.91-.9h1.03c.51.01.93.42.93.93l-.02,2.82c0,.37.18.56.55.56l4.18.02c.43,0,.78.35.79.78,0,.11-.01.22-.01.35-.03.65-.37.98-1.03.98l-3.85-.02c-.31,0-.56.24-.56.54-.15,5-.15,7.96.01,8.87.23,1.35,1.64,1.83,4.22,1.46.77-.11,1.15.22,1.15,1.01v.4c0,.56-.28.89-.83.99-5.19.89-7.69-1.06-7.5-5.86.1-2.71.06-5.01-.12-6.88Z"/>
  <path class="cls-1" d="M184.25,76.89c.01-1.59-1.27-2.89-2.86-2.9l-3.14-.02c-1.59,0-2.89,1.27-2.9,2.86l-.04,5.48c-.01,1.59,1.27,2.89,2.86,2.9l3.14.02c1.59,0,2.89-1.27,2.9-2.86l.04-5.48ZM186.88,82.79c0,2.64-2.14,4.78-4.77,4.79h-4.76c-2.64.01-4.78-2.13-4.79-4.76v-6.36c-.02-2.64,2.12-4.78,4.76-4.79h4.76c2.64-.01,4.78,2.13,4.79,4.76v6.36"/>
  <path class="cls-1" d="M203.84,78.6l7.02-.02c.41,0,.73-.32.73-.73v-1.05c0-1.58-1.38-2.85-3.07-2.85h-2.34c-1.7.01-3.07,1.29-3.07,2.87v1.05c0,.4.33.73.73.73ZM203.69,80.75c-.41,0-.62.2-.64.61-.05,1.86.32,3.3,2.47,3.72,2.16.42,4.56.35,7.2-.21.61-.13.92.12.92.74v.61c.01.55-.26.88-.8.99-2.95.59-8.51,1.13-11.06-.99-.75-.62-1.16-1.71-1.23-3.27-.17-3.58-.15-6.21.05-7.88.17-1.4,1.52-2.65,2.94-3,2.84-.72,8.99-1.1,10.17,2.33.56,1.64.68,3.49.37,5.55-.06.43-.43.75-.87.75l-9.52.05"/>
  <path class="cls-1" d="M262.64,78.61l7.54.02c.26,0,.48-.22.48-.48v-1.36c0-1.58-1.33-2.86-2.97-2.87h-2.56c-1.64-.01-2.97,1.27-2.97,2.85v1.36c0,.27.21.48.48.48ZM262.12,81.33c-.06,1.86.3,3.31,2.45,3.74,2.16.43,4.56.37,7.21-.18.61-.13.92.12.92.75v.61c0,.55-.27.88-.81.99-2.96.57-8.53,1.08-11.07-1.05-.75-.63-1.15-1.72-1.22-3.28-.15-3.59-.12-6.22.09-7.89.18-1.4,1.54-2.65,2.96-2.99,2.85-.71,9.01-1.06,10.17,2.38.55,1.65.67,3.5.35,5.56-.07.43-.44.75-.88.75h-9.53c-.41,0-.62.2-.64.61"/>
  <path class="cls-1" d="M280.82,80.76c-1.73-.42-5.49-.89-5.71-3.3-.12-1.32-.11-2.29,0-2.9.84-3.87,8.35-3.15,10.88-2.67.57.11.85.45.85,1.03v.37c0,.46-.23.69-.69.69h-6.74c-.48,0-.94.23-1.22.63-.86,1.2-.8,2.16.18,2.87.35.26,1.27.57,2.78.94,1.72.42,5.48.89,5.7,3.3.12,1.32.12,2.29-.01,2.9-.84,3.87-8.35,3.15-10.88,2.67-.57-.11-.85-.45-.85-1.03v-.37c0-.46.23-.69.69-.69h6.74c.48,0,.94-.23,1.22-.63.86-1.2.8-2.16-.18-2.87-.35-.26-1.27-.57-2.77-.94Z"/>
  <path class="cls-1" d="M309.31,80.26l-6.44.47c-.62.05-1.08.59-1.03,1.2l.08,1.11c.1,1.46,1.77,2.53,3.72,2.38l1.62-.12c1.95-.14,3.44-1.44,3.33-2.9l-.08-1.11c-.04-.61-.58-1.08-1.2-1.03ZM310.98,86.47c-.06-.39-.26-.48-.59-.27-2.85,1.78-5.86,2.03-9.02.74-1.32-.52-2.08-1.89-2.19-3.31-.42-6.06,5.99-5.71,10.13-5.18.91.12,1.36-.28,1.36-1.2v-.65c0-1.27-.63-2.06-1.87-2.35-2.15-.5-4.65-.51-7.53-.01-.68.11-1.02-.17-1.02-.86v-.4c0-.59.45-1.09,1.05-1.15,2.96-.3,5.67-.28,8.1.04,2.27.31,3.63,1.5,3.69,3.99.11,4.62.11,8.32,0,11.12-.02.45-.43.77-.87.7-.71-.12-1.12-.52-1.23-1.21"/>
  <path class="cls-1" d="M327.34,86.47c-1.77,1.09-4.14,1.43-7.09,1.02-1.45-.21-2.51-.73-3.18-1.58-.53-.67-.79-1.71-.79-3.13-.01-5.1,0-8.49.04-10.18.01-.42.35-.76.77-.76h1.01c.46,0,.84.38.84.84v9.27c0,2.18,1.09,3.27,3.27,3.27h1.99c2.43,0,3.65-1.22,3.65-3.65v-8.86c0-.47.38-.85.85-.85h.82c.5,0,.9.41.9.91v13.93c0,.51-.45.9-.95.83-.57-.08-1.01-.37-1.34-.87-.2-.33-.46-.39-.79-.19Z"/>
  <path class="cls-1" d="M337.39,72.91c1.7-.96,3.26-1.37,4.67-1.22.45.05.68.29.68.74v.49c0,.68-.34,1.02-1.03,1.02-1.7-.01-4.46.78-4.51,3.05-.08,3.61-.1,6.82-.05,9.61.01.33-.26.6-.59.6h-1.59c-.44,0-.66-.22-.66-.66v-14.11c0-.34.25-.62.59-.66.78-.08,1.37.23,1.77.94.17.31.41.37.72.2Z"/>
  <path class="cls-1" d="M354.07,80.57c-2.28-.34-4.51-.29-6.69.14-1.16.23-1.68,1.28-1.6,2.39.07.91.68,1.68,1.54,1.95,3.04.97,7.67.33,7.28-3.92-.03-.33-.21-.51-.53-.56ZM354.35,86.22c-2.86,1.78-5.87,2.02-9.04.73-1.32-.53-2.08-1.9-2.18-3.32-.41-6.08,6.01-5.71,10.15-5.17.91.12,1.37-.28,1.37-1.2v-.65c0-1.28-.62-2.07-1.87-2.36-2.15-.51-4.66-.52-7.54-.03-.68.11-1.02-.17-1.02-.86v-.4c0-.6.45-1.09,1.05-1.15,2.97-.29,5.68-.27,8.12.06,2.27.31,3.63,1.51,3.69,4,.1,4.63.09,8.34-.04,11.14-.02.45-.43.77-.87.7-.71-.12-1.12-.52-1.23-1.21-.06-.39-.26-.49-.59-.28"/>
  <path class="cls-1" d="M362.82,72.58c.21.32.47.38.79.18,1.77-1.1,4.12-1.45,7.08-1.06,1.44.2,2.5.72,3.18,1.56.53.66.8,1.7.81,3.12.04,5.09.04,8.47.02,10.16,0,.42-.34.76-.76.76h-1.01c-.46.01-.84-.36-.84-.83l-.06-9.25c-.02-2.17-1.11-3.26-3.29-3.24h-1.98c-2.43.03-3.64,1.25-3.62,3.68l.05,8.84c0,.47-.37.85-.84.85h-.82c-.5.01-.9-.39-.9-.89l-.09-13.91c0-.5.44-.9.94-.83.57.07,1.02.36,1.34.86Z"/>
  <path class="cls-2" d="M185.11,106.09c0-.52-.44-.94-.96-.94h-1.2c-.53.02-.95.45-.94.98l.03,2.1c0,.52.44.94.96.94h1.2c.53-.02.95-.45.94-.98l-.03-2.1ZM182.03,103.62c0,.37.18.49.53.37,2.31-.81,4.04-.29,4.1,2.43.02.93-.07,1.97-.25,3.11-.09.57-.57.98-1.14,1l-3.86.08c-.55,0-.84-.26-.85-.82l-.16-7.82c0-.48.22-.73.7-.74h.38c.28,0,.5.2.51.48l.04,1.91"/>
  <path class="cls-2" d="M257.01,103.62c0,.42.19.54.57.38,1.26-.55,2.45-.45,3.58.3.31.2.47.5.47.88l.02,4.6c0,.42-.2.67-.6.77-.18.04-.39,0-.63-.15-.17-.1-.27-.28-.27-.47l-.02-3.64c0-.77-.39-1.15-1.16-1.15h-.92c-.69.01-1.03.35-1.03,1.03l.02,3.91c0,.27-.21.49-.47.49h-.4c-.42,0-.62-.21-.63-.62l-.04-8.29c0-.28.14-.41.41-.41h.48c.34-.01.61.27.61.61v1.76Z"/>
  <path class="cls-2" d="M294.61,104c1.26-.54,2.45-.43,3.58.32.31.21.46.5.46.88v4.61c0,.41-.2.67-.6.76-.18.04-.39-.01-.63-.15-.17-.1-.27-.28-.27-.47v-3.64c0-.77-.39-1.16-1.16-1.16h-.92c-.69,0-1.03.34-1.03,1.02v3.92c0,.27-.21.48-.48.48h-.4c-.41,0-.62-.21-.62-.62v-8.3c0-.27.14-.41.41-.41h.48c.34,0,.61.28.61.62v1.76c0,.42.19.55.57.38Z"/>
  <path class="cls-2" d="M317.49,106.11c0-.55-.45-.99-1-.98h-.8c-.55.01-.99.46-.98,1.01l.02,2.08c0,.55.45.99,1,.98h.8c.55-.01.99-.46.98-1.01l-.02-2.08ZM317.54,103.67v-1.88c0-.27.22-.49.49-.49h.37c.47,0,.71.24.71.71v7.69c0,.55-.27.82-.82.82h-3.79c-.56,0-1.04-.4-1.14-.95-.21-1.12-.31-2.14-.31-3.06,0-2.67,1.69-3.22,3.98-2.47.34.11.51-.01.51-.37"/>
  <path class="cls-2" d="M166.61,103.69c0,.4.18.53.55.37,1.22-.51,2.38-.4,3.47.34.29.2.44.49.44.86l-.04,4.47c-.01.4-.2.64-.59.73-.18.04-.38-.01-.61-.15-.16-.1-.26-.27-.26-.46l.03-3.53c0-.75-.36-1.13-1.11-1.13h-.9c-.66-.02-1,.31-1,.97l-.04,3.8c0,.26-.21.46-.47.46h-.38c-.4,0-.6-.21-.6-.61l.07-8.05c0-.26.14-.39.4-.39h.47c.32.01.59.28.58.61v1.71Z"/>
  <path class="cls-2" d="M214.63,103.37v-1.2c0-.25.13-.39.38-.42.09-.01.19-.01.32,0,.33.04.51.22.56.55.09.73-.08,1.22-.52,1.48-.32.2-.74-.04-.74-.42Z"/>
  <path class="cls-2" d="M244.34,105.44c.13.05.55.19,1.25.42,1.72.58,1.87,2.27,1.17,3.74-.15.31-.39.52-.72.63-1.44.47-2.91.56-4.41.26-.27-.05-.47-.29-.47-.57v-.45c0-.37.18-.51.55-.42,1.01.27,2.1.27,3.27.02.35-.07.56-.29.63-.64.05-.27,0-.51-.13-.72-.13-.19-.37-.35-.73-.48-.3-.1-.59-.21-.88-.32-.13-.05-.55-.19-1.25-.43-1.72-.57-1.87-2.26-1.17-3.73.15-.32.39-.53.72-.63,1.44-.48,2.91-.56,4.41-.26.27.05.47.29.47.57v.45c0,.37-.18.51-.55.42-1.01-.27-2.1-.28-3.27-.02-.35.07-.56.28-.63.64-.05.27,0,.51.13.72.13.19.37.35.73.48.3.1.59.21.88.32Z"/>
  <path class="cls-2" d="M281.81,101.9c.26-.22.64-.2.89.03.35.34.38.79.08,1.34-.25.47-.94.44-1.15-.05-.25-.58-.19-1.02.18-1.32Z"/>
  <path class="cls-2" d="M286.74,105.64c.16,1.25.62,1.36,1.37.34.92-1.25,1.7-1.89,2.34-1.91.21-.01.37.07.49.25.06.09.08.19.08.3-.01.1-.07.19-.17.29-.64.61-1.16,1.24-1.57,1.87-.19.33-.18.65.05.96l1.67,2.25c.29.39.2.63-.26.75l-.48.11c-.26.06-.53-.04-.69-.26l-1.95-2.62c-.29-.39-.9-.19-.9.29v2.15c0,.27-.14.41-.41.41h-.52c-.44,0-.66-.22-.66-.67l-.02-7.66c0-.46.23-.69.69-.69h.46c.35,0,.51.18.48.53-.12,1.33-.13,2.43,0,3.31Z"/>
  <rect class="cls-2" x="153.14" y="102.31" width="1.5" height="8.54" rx=".63" ry=".63" transform="translate(-.58 .84) rotate(-.31)"/>
  <path class="cls-2" d="M209.28,102.23c1.08-.02,2.13-.02,3.16.02.22,0,.4.2.4.42v.41c0,.35-.18.53-.53.53h-1.6c-.44,0-.66.22-.66.66v5.77c0,.27-.12.46-.36.57-.13.06-.27.09-.42.09-.16,0-.3-.03-.42-.09-.24-.11-.36-.31-.36-.57v-5.77c.02-.44-.2-.66-.64-.66h-1.6c-.36-.01-.53-.19-.53-.54v-.41c0-.22.18-.41.4-.42,1.03-.03,2.08-.04,3.16-.01Z"/>
  <path class="cls-2" d="M323.79,109.27c.68-.07,1.07-.06,1.18.05.43.43.04,1.17-.65,1.24-1.55.17-2.46-.28-2.71-1.34-.05-.21-.08-1.22-.09-3.03,0-.32-.24-.59-.56-.64-.15-.03-.28-.08-.4-.16-.32-.22-.33-.46-.04-.71.61-.53,1.02-1.19,1.25-1.96.1-.35.31-.44.62-.25l.31.18c.19.1.28.26.28.47.03,1.08.59,1.44,1.68,1.07.28-.1.58.11.58.41v.5c0,.36-.18.54-.55.54h-1.05c-.38,0-.57.19-.57.57v2.4c0,.39.33.7.72.66Z"/>
  <path class="cls-2" d="M159.75,105.11h-.54c-.77.01-1.15.39-1.15,1.17l.02,3.77c0,.26-.21.47-.47.47h-.4c-.41,0-.74-.32-.74-.73l-.02-4.64c0-.92.46-1.38,1.39-1.39h2.98c.98-.02,1.77.77,1.78,1.74l.02,4.57c0,.3-.15.45-.46.45h-.4c-.37,0-.68-.3-.68-.68v-3.43c-.02-.87-.46-1.3-1.33-1.3Z"/>
  <path class="cls-2" d="M176.98,108.43c-.03-.41-.71-.7-1.53-.65-.82.06-1.45.43-1.43.85.03.41.71.7,1.53.65.82-.06,1.45-.43,1.43-.85ZM177.02,106.1l-.1-.42c-.05-.21-.22-.38-.43-.42-1.12-.24-2.12-.25-3-.04-.21.05-.34-.03-.39-.24l-.07-.32c-.09-.39.05-.64.42-.76,1.81-.59,3.39-.4,4.72.56.31.22.46.52.46.89v4.79c0,.38-.19.52-.56.41-.83-.24-1.77-.21-2.83.1-1.26.36-2.55-.5-2.7-1.8-.19-1.67,1.12-2.38,3.94-2.13.35.03.62-.29.54-.62"/>
  <path class="cls-2" d="M193.14,106.01c.01-.47-.7-.86-1.57-.87-.87-.01-1.58.36-1.59.83-.01.47.7.86,1.57.87.87.01,1.58-.36,1.59-.83ZM190.58,107.95c-.22,0-.37.1-.43.29-.02.05,0,.17.03.37.05.21.18.34.39.39,1.09.26,2.21.3,3.36.12.31-.06.47.07.47.4v.33c0,.32-.15.53-.46.62-1.65.45-3.19.36-4.64-.26-.3-.14-.52-.39-.61-.7-.13-.47-.21-1.49-.23-3.06-.02-1.29.38-2.11,1.21-2.45,2.71-1.12,5.51-.03,4.9,3.44-.07.36-.28.54-.65.53-1-.04-2.11-.04-3.34-.02"/>
  <path class="cls-2" d="M197.68,106.06v3.89c0,.37-.18.56-.55.56h-.44c-.31,0-.56-.26-.56-.57v-5.56c0-.29.27-.51.56-.45.85.19,1.78.11,2.79-.24.29-.09.58.13.58.45v.68c0,.28-.14.42-.42.42h-1.13c-.55,0-.83.27-.83.82Z"/>
  <path class="cls-2" d="M219.63,106.13v3.97c0,.25-.2.45-.45.45h-.41c-.34,0-.62-.28-.62-.62v-5.49c0-.38.19-.57.57-.57h3.49c.29,0,.55.07.8.22l.25.13c.25.15.51.15.77.02,1.58-.86,3-.82,4.25.11.23.17.36.43.36.71v4.96c0,.25-.2.46-.44.46h-.42c-.35,0-.64-.29-.64-.65v-3.67c0-.67-.34-1.01-1.01-1.01h-.97c-.77,0-1.15.39-1.15,1.17v3.76c0,.24-.2.44-.45.44h-.43c-.34,0-.62-.28-.62-.62v-3.68c0-.72-.36-1.08-1.08-1.08h-.81c-.66,0-.99.33-.99.99Z"/>
  <path class="cls-2" d="M235.11,106.13c0-.55-.46-.99-1.01-.99h-1.1c-.55.02-1,.47-.99,1.02l.02,2.06c0,.55.46.99,1.01.99h1.1c.55-.02,1-.47.99-1.02l-.02-2.06ZM236.66,108.53c0,1.15-.94,2.09-2.09,2.09h-1.98c-1.15,0-2.08-.94-2.09-2.1v-2.7c0-1.15.94-2.09,2.1-2.09h1.98c1.15,0,2.08.94,2.09,2.1v2.7"/>
  <path class="cls-2" d="M250.06,107.18c0,.77.02,1.18.03,1.24.11.41.33.65.65.7.89.13,1.7.12,2.43-.03.3-.06.59.17.59.47v.37c0,.17-.08.29-.24.35-1.55.65-2.97.57-4.28-.24-.29-.19-.48-.45-.56-.79-.1-.41-.15-1.1-.16-2.07,0-.97.04-1.66.13-2.07.08-.34.26-.6.55-.79,1.3-.83,2.72-.93,4.28-.3.16.06.24.18.24.35v.37c.01.3-.27.53-.58.48-.72-.15-1.53-.15-2.43,0-.31.06-.53.29-.63.7-.02.06-.02.48-.02,1.26Z"/>
  <path class="cls-2" d="M278.14,105.96c0-.46-.72-.82-1.59-.81-.87,0-1.58.39-1.57.85,0,.46.72.82,1.59.81.87,0,1.58-.39,1.57-.85ZM275.21,108.23c-.02.05-.01.18.03.37.05.21.18.35.39.4,1.09.27,2.2.31,3.35.14.31-.05.47.08.47.4v.33c0,.33-.16.53-.47.62-1.65.43-3.19.33-4.63-.3-.3-.13-.52-.39-.6-.7-.13-.47-.2-1.49-.21-3.06-.01-1.29.4-2.1,1.23-2.43,2.71-1.1,5.5,0,4.86,3.47-.07.36-.28.53-.65.52-.99-.04-2.1-.05-3.33-.04-.23,0-.37.09-.44.28"/>
  <path class="cls-2" d="M304.47,108.51c-.02-.4-.66-.71-1.45-.68-.78.03-1.4.38-1.39.78.02.4.66.71,1.45.68.78-.03,1.4-.38,1.39-.78ZM304.53,106.13l-.1-.41c-.04-.21-.21-.37-.42-.42-1.09-.24-2.07-.27-2.94-.07-.2.05-.33-.03-.38-.23l-.06-.32c-.09-.38.05-.63.42-.74,1.78-.56,3.32-.36,4.62.6.3.22.45.51.44.87l-.05,4.7c0,.37-.19.5-.55.4-.81-.25-1.73-.22-2.78.07-1.24.34-2.49-.52-2.62-1.8-.18-1.63,1.12-2.32,3.88-2.04.34.03.61-.28.54-.61"/>
  <path class="cls-2" d="M310.5,105.22c-.55,0-.82.27-.82.81v3.85c-.01.37-.19.56-.55.55h-.44c-.3,0-.55-.25-.55-.56v-5.5c0-.29.27-.5.56-.44.84.18,1.75.1,2.76-.24.28-.09.57.13.57.45v.67c0,.28-.14.41-.42.41h-1.11Z"/>
  <path class="cls-2" d="M201.91,106.49c-.45,0-.81-.6-.8-1.32,0-.73.39-1.31.84-1.3.45,0,.81.6.8,1.32,0,.73-.39,1.31-.84,1.3Z"/>
  <rect class="cls-2" x="211.97" y="106.86" width="6.6" height="1.52" rx=".73" ry=".73" transform="translate(106.94 322.53) rotate(-89.81)"/>
  <path class="cls-2" d="M267.41,104.24c.72,0,1.21,1,1.49,3.01.17,1.27.57,1.38,1.2.31.05-.08.23-.93.52-2.56.06-.35.41-.65.88-.76l.18-.04c.43-.09.81.29.68.7l-1.73,5.59c-.13.41-.39.55-.8.42l-1-.3c-.22-.07-.39-.26-.43-.49-.33-1.79-.66-2.69-.99-2.69s-.66.9-.99,2.69c-.05.23-.21.42-.43.49l-1,.3c-.41.13-.68,0-.8-.42l-1.74-5.59c-.12-.4.25-.79.68-.7l.18.04c.47.11.82.41.88.76.3,1.63.47,2.48.52,2.56.63,1.07,1.03.96,1.21-.31.27-2,.76-3.01,1.49-3.01Z"/>
  <path class="cls-2" d="M283.09,110.18c0,.39-.32.72-.72.72h-.12c-.4,0-.72-.32-.72-.72l-.03-5.08c0-.39.32-.72.72-.72h.12c.4,0,.72.32.72.72l.03,5.08Z"/>
  <path class="cls-2" d="M201.08,109.47c0-.8,1.01-1.16,1.51-.53.45.56.36,1.14-.27,1.74-.46.45-1.24.12-1.24-.52v-.69Z"/>
  <rect class="cls-2" x="228.61" y="115.82" width="1.48" height="13.08" rx=".64" ry=".64"/>
  <path class="cls-2" d="M182.45,121.27c0-.6-.47-1.09-1.07-1.11l-1.24-.02c-.6-.01-1.1.47-1.11,1.07l-.03,1.82c0,.6.47,1.09,1.07,1.11l1.24.02c.6.01,1.1-.47,1.11-1.07l.03-1.82ZM182.48,118.75v-1.98c0-.33.32-.58.64-.49l.29.07c.44.11.66.4.66.86v7.92c0,.33-.37.54-.65.36-.11-.07-.2-.11-.28-.14-.31-.12-.64-.12-1.01-.01-1.35.41-2.57.43-3.66.06-.35-.11-.57-.35-.68-.7-.47-1.53-.5-3.17-.09-4.93.08-.32.29-.58.58-.71,1.13-.51,2.38-.5,3.76.01.21.08.44-.09.44-.32"/>
  <path class="cls-2" d="M327.5,121.16c0-.57-.47-1.04-1.04-1.04h-.68c-.57,0-1.04.47-1.04,1.04v2.02c0,.57.47,1.04,1.04,1.04h.68c.57,0,1.04-.47,1.04-1.04v-2.02ZM324.69,118.66c.01.36.18.48.52.36,2.29-.76,3.98-.22,4,2.46,0,.92-.1,1.94-.3,3.07-.09.55-.57.95-1.14.95l-3.79.02c-.55.01-.83-.27-.83-.82l-.04-7.7c0-.47.24-.71.71-.71h.37c.27-.01.49.21.49.48v1.89"/>
  <path class="cls-2" d="M370.05,118.65c0,.41.19.54.56.37,1.24-.54,2.41-.44,3.53.29.3.2.45.49.46.86l.03,4.54c0,.41-.19.66-.59.76-.17.04-.38-.01-.62-.15-.16-.09-.27-.27-.27-.46l-.02-3.58c-.01-.76-.39-1.14-1.15-1.14h-.91c-.67.01-1.01.35-1.01,1.02l.03,3.86c0,.26-.21.47-.47.48h-.39c-.41,0-.61-.2-.62-.61l-.05-8.17c-.01-.27.13-.4.4-.41h.47c.33,0,.6.27.6.61l.02,1.73Z"/>
  <path class="cls-2" d="M201.71,120.61c.17,1.26.63,1.38,1.39.35.93-1.26,1.71-1.9,2.36-1.93.21-.01.38.08.49.26.06.09.09.19.08.3,0,.1-.06.2-.17.29-.65.62-1.17,1.25-1.58,1.89-.2.33-.19.65.04.96l1.69,2.28c.29.39.2.64-.27.75l-.48.11c-.26.06-.54-.04-.7-.26l-1.96-2.65c-.29-.39-.91-.19-.91.3v2.16c0,.28-.14.42-.42.42h-.52c-.45,0-.67-.23-.67-.68v-7.73c0-.46.23-.69.69-.69h.47c.35,0,.51.18.48.53-.13,1.34-.13,2.45,0,3.34Z"/>
  <path class="cls-2" d="M211.69,123.93c.14.13.35.2.62.21,1.19.03,2.31.02,3.37-.03.29-.02.54.21.54.51v.5c.02.3-.12.45-.41.45l-5.26.12c-.27.01-.5-.21-.5-.48l-.06-2.6c-.01-.39.21-.75.56-.91l3.61-1.66c.32-.16.48-.41.45-.78-.05-.57-.43-.91-1.14-1.01-.93-.15-1.89-.11-2.9.09-.24.05-.47-.12-.51-.37l-.06-.31c-.05-.36.1-.58.45-.67,1.87-.49,3.45-.39,4.73.29,1.4.74,1.48,2.76.15,3.85-.54.46-1.37.81-2.5,1.07-.36.09-.69.28-.94.56-.45.49-.51.88-.2,1.17Z"/>
  <path class="cls-2" d="M251.96,124.2c1.22.06,2.37.08,3.46.05.29-.01.54.23.54.53v.52c0,.3-.15.45-.45.45h-5.39c-.28,0-.5-.23-.5-.51v-2.66c0-.4.24-.76.6-.92l3.73-1.62c.34-.15.5-.41.48-.78-.04-.59-.42-.94-1.14-1.07-.95-.17-1.94-.16-2.97.03-.25.04-.49-.13-.52-.39l-.05-.32c-.05-.37.11-.59.47-.68,1.93-.45,3.55-.32,4.84.41,1.42.79,1.45,2.86.07,3.95-.57.45-1.43.8-2.59,1.04-.37.08-.71.27-.98.55-.47.49-.54.89-.23,1.19.15.14.36.22.63.23Z"/>
  <path class="cls-2" d="M269.54,122.08h-2.64c-.33,0-.49-.17-.49-.5v-.45c0-.29.15-.44.44-.44h2.33c.37,0,.65-.17.82-.51.31-.61.3-1.13-.01-1.54-.22-.29-.58-.45-1.08-.48-1.05-.06-1.96-.04-2.73.06-.35.05-.52-.1-.52-.45v-.36c0-.33.16-.52.49-.56,1.87-.27,5.96-.55,5.82,2.3-.03.53-.18,1.05-.46,1.57-.14.27-.14.59,0,.85,2.39,4.35-3.01,4.33-5.38,4.03-.3-.04-.45-.21-.45-.51v-.42c0-.38.19-.55.57-.52,1.82.17,2.97.13,3.45-.1.6-.29.81-.75.63-1.38-.11-.39-.38-.59-.79-.59Z"/>
  <path class="cls-2" d="M287.42,123.37c-.07-.4-.7-.63-1.41-.52-.72.11-1.26.52-1.2.92.07.4.7.63,1.41.52.72-.11,1.26-.52,1.2-.92ZM283.07,124.06c-.05-1.97,1.3-2.78,4.05-2.41.28.04.48-.25.37-.5l-.19-.44c-.15-.35-.42-.53-.8-.53h-2.37c-.29,0-.53-.24-.53-.53-.01-.54.18-.84.56-.9,2.03-.33,3.54-.11,4.54.66.25.19.39.48.39.79v4.93c0,.41-.19.55-.58.4-1.51-.58-2.89.79-4.67-.4-.29-.19-.58-.2-.88-.04-1.18.62-2.94.79-5.29.52-.38-.05-.57-.26-.57-.64v-7.32c0-.32.26-.58.58-.58h.41c.33,0,.6.27.6.6v6.32c0,.17.08.25.25.25h3.95c.13,0,.19-.06.18-.18"/>
  <path class="cls-2" d="M156,122c-.5-.72-.82-1.15-.96-1.3-.31-.31-.46-.28-.46.1l.05,4.42c.01.4-.19.6-.6.6h-.49c-.29,0-.43-.15-.43-.43v-5.95c0-2.98.8-3.22,2.41-.72.32.5.85,1.3,1.61,2.4.49.73.8,1.16.94,1.3.31.31.47.28.47-.09l-.05-4.42c-.01-.4.19-.6.6-.6h.49c.29,0,.43.14.43.43v5.95c0,2.97-.8,3.21-2.41.71-.32-.49-.85-1.29-1.6-2.4Z"/>
  <path class="cls-2" d="M222.37,124.23h1.3c.18,0,.33.16.33.36v.51c0,.3-.24.54-.54.54h-4.91c-.46,0-.66-.23-.6-.68.09-.69.65-.93,1.67-.72.32.06.48-.07.48-.39v-4.7c0-.35-.18-.53-.53-.53h-1.05c-.41,0-.62-.21-.62-.62v-.29c0-.34.17-.51.51-.51h2.76c.29,0,.53.23.53.52v5.83c0,.45.22.68.67.68Z"/>
  <path class="cls-2" d="M238.35,118.69h-3.55c-.26,0-.47-.21-.47-.48v-.38c0-.34.27-.61.6-.61h5.43c.61,0,.99.66.68,1.19l-3.87,6.71c-.21.36-.49.54-.82.54h-.41c-.47,0-.6-.21-.37-.62l3.13-5.75c.22-.4.1-.6-.35-.6Z"/>
  <path class="cls-2" d="M245.54,119.67l-1.93,2.45c-.3.38-.21.57.28.57h1.7c.34,0,.51-.17.51-.5v-2.32c0-.6-.19-.67-.56-.2ZM247.71,124.36v.85c0,.4-.2.62-.59.67-.25.03-.47-.01-.64-.14-.14-.1-.24-.28-.31-.54-.07-.31-.14-.55-.19-.74-.09-.29-.28-.43-.57-.43h-3.53c-.57,0-.88-.65-.53-1.1l3.64-4.61c1.63-2.06,2.53-1.78,2.71.84.03.53.03,1.51,0,2.94,0,.35.16.58.49.7l.49.19c.45.17.48.4.11.69-.14.11-.3.16-.48.14-.32-.03-.6.22-.6.54"/>
  <path class="cls-2" d="M261.53,119.68l-1.97,2.48c-.29.37-.2.56.28.56h1.73c.35,0,.53-.18.53-.53v-2.32c0-.61-.19-.68-.57-.19ZM264.3,123.84c-.32-.03-.6.22-.6.53v.85c0,.4-.2.62-.6.67-.25.03-.46-.02-.64-.14-.14-.1-.24-.29-.3-.55-.08-.3-.14-.55-.19-.74-.08-.28-.27-.43-.57-.43l-3.52-.02c-.57,0-.88-.66-.53-1.1l3.66-4.58c1.64-2.05,2.54-1.77,2.71.85.03.53.02,1.5-.02,2.94,0,.34.15.58.49.7l.49.19c.44.17.48.4.1.69-.14.11-.3.16-.48.14"/>
  <path class="cls-2" d="M351.62,119.28h1.21c.24,0,.44.18.46.42.01.13.01.26,0,.39-.06.37-.28.55-.65.55h-1.07c-.36,0-.54.18-.54.55v2.41c0,.3.25.55.55.55h.93c.34,0,.55.16.62.49.11.5,0,.79-.35.87-2.11.49-3.18-.29-3.21-2.33-.01-1.07-.05-1.83-.12-2.27-.04-.26-.26-.45-.52-.45h-2.48c-.5,0-.75.25-.75.75v1.87c0,.36.14.65.43.86.32.24.71.34,1.17.3.38-.03.59.14.64.51.02.18-.02.36-.11.53-.07.13-.22.22-.43.27-1.52.33-2.56-.04-3.13-1.1-.16-.3-.22-.66-.16-1,.25-1.4.03-2.4-.67-2.99-.27-.23-.31-.49-.14-.79l.9-1.57c.64-1.11,1.13-1.05,1.48.18l.17.6c.09.33.31.5.66.5h2.44c.29,0,.44-.14.47-.42.07-.68.18-1.1.31-1.26.26-.31.54-.35.85-.13.33.23.51.64.53,1.21.02.33.19.5.52.5Z"/>
  <path class="cls-2" d="M165.06,121.65c.45-.01.83-.03,1.13-.07.36-.04.52-.45.3-.73-.43-.55-.91-.82-1.44-.81-.52,0-1,.28-1.43.83-.21.28-.04.69.31.73.31.03.68.05,1.13.05ZM164.09,122.94c-.22.01-.36.1-.43.29-.01.05,0,.17.04.36.05.21.18.34.39.39,1.08.24,2.17.26,3.3.07.31-.06.46.07.47.39v.32c.01.32-.14.53-.45.62-1.61.46-3.13.39-4.56-.21-.29-.12-.51-.37-.6-.68-.14-.45-.23-1.46-.26-3-.04-1.27.35-2.07,1.16-2.42,2.65-1.13,5.41-.09,4.85,3.33-.06.35-.27.53-.63.52-.98-.02-2.07-.01-3.28.02"/>
  <path class="cls-2" d="M188.54,121.68c.59,0,.94-.01,1.05-.03.37-.05.51-.25.44-.61-.14-.65-.64-.96-1.5-.95-.87.01-1.37.33-1.49.98-.06.36.09.56.45.6.12.02.47.02,1.05.01ZM187.6,122.96c-.23,0-.38.1-.44.28-.02.06,0,.18.03.37.05.22.19.35.4.4,1.09.25,2.22.29,3.36.1.32-.06.48.07.48.39v.33c0,.33-.15.54-.46.63-1.64.46-3.19.38-4.65-.24-.3-.13-.52-.38-.61-.69-.14-.47-.22-1.49-.25-3.07-.03-1.29.37-2.11,1.2-2.45,2.71-1.14,5.52-.07,4.92,3.41-.06.37-.27.54-.64.53-1-.02-2.11-.02-3.34.01"/>
  <path class="cls-2" d="M193.07,122.08c0-.98.07-1.68.17-2.09.09-.35.28-.61.58-.8,1.33-.81,2.78-.89,4.34-.21.17.06.25.18.25.36v.37c0,.31-.3.54-.61.47-.74-.16-1.56-.17-2.46-.04-.33.05-.55.28-.66.7-.02.06-.03.48-.04,1.27,0,.78,0,1.2,0,1.26.11.42.32.66.64.72.91.16,1.73.16,2.47.02.31-.05.59.18.59.49v.38c0,.17-.1.29-.26.35-1.58.63-3.03.52-4.34-.33-.29-.2-.48-.47-.55-.81-.09-.42-.13-1.12-.12-2.11Z"/>
  <path class="cls-2" d="M294.31,120.16h-.53c-.76,0-1.14.37-1.14,1.13l-.02,3.71c0,.26-.21.46-.47.46h-.39c-.4,0-.72-.32-.72-.72l.02-4.57c.01-.91.47-1.36,1.39-1.35h2.93c.96.02,1.73.79,1.73,1.75l-.02,4.5c0,.29-.16.44-.46.44h-.39c-.37,0-.67-.31-.66-.68v-3.38c.02-.85-.41-1.28-1.27-1.29Z"/>
  <path class="cls-2" d="M304.08,121.28c0-.64-.51-1.16-1.15-1.15h-1.06c-.64,0-1.15.51-1.15,1.14v1.76c-.01.64.51,1.16,1.14,1.15h1.06c.64,0,1.15-.51,1.15-1.14v-1.76ZM303.43,125.3c-1.33.63-2.54.57-3.65-.18-.28-.19-.46-.45-.53-.78-.22-1.09-.25-2.34-.08-3.75.12-.99.96-1.73,1.95-1.73h4.07c.36,0,.54.18.54.54v6.96c0,.81-.48,1.53-1.23,1.85-1.33.56-2.89.66-4.68.3-.25-.05-.38-.2-.38-.46v-.39c0-.26.22-.47.48-.45,1.11.07,2.02.08,2.72.05.58-.03.98-.19,1.19-.49.23-.33.33-.7.28-1.1-.04-.32-.39-.51-.68-.37"/>
  <path class="cls-2" d="M310.11,121.65c.68,0,1.05-.01,1.12-.02.38-.1.49-.32.33-.65-.29-.61-.78-.92-1.45-.92s-1.16.31-1.45.92c-.16.34-.05.55.33.65.07.02.44.03,1.12.02ZM309.18,122.95c-.22,0-.37.1-.43.28-.02.05-.01.17.03.36.04.21.17.34.38.39,1.07.26,2.17.31,3.29.13.31-.05.46.08.46.4v.32c0,.32-.15.52-.46.61-1.61.43-3.13.33-4.54-.29-.29-.12-.51-.38-.59-.68-.13-.46-.21-1.46-.22-3-.01-1.27.39-2.06,1.21-2.39,2.65-1.09,5.4,0,4.77,3.39-.06.36-.27.53-.63.52-.98-.04-2.07-.05-3.27-.04"/>
  <path class="cls-2" d="M318.31,120.14h-.53c-.76,0-1.14.38-1.14,1.13v3.7c-.01.25-.22.46-.47.46h-.39c-.4,0-.73-.32-.72-.72v-4.55c.01-.9.47-1.35,1.38-1.35h2.93c.95.01,1.73.78,1.72,1.73v4.48c-.01.3-.16.44-.46.44h-.39c-.37,0-.67-.3-.67-.67v-3.36c.02-.85-.41-1.28-1.26-1.29Z"/>
  <path class="cls-2" d="M333.54,120.23c-.55,0-.83.27-.84.81l-.04,3.89c0,.37-.19.56-.56.55h-.44c-.31,0-.55-.26-.55-.58l.06-5.55c.01-.3.28-.51.57-.45.84.2,1.77.13,2.79-.21.29-.09.58.14.57.46v.68c0,.28-.15.42-.43.41h-1.13Z"/>
  <path class="cls-2" d="M340.62,120.96c0-.44-.67-.8-1.51-.8s-1.51.35-1.51.78.67.8,1.51.8,1.51-.35,1.51-.78ZM338.12,122.94c-.23.01-.37.1-.43.29-.02.05-.01.17.04.36.05.21.18.34.39.39,1.07.24,2.17.26,3.3.07.3-.06.46.07.47.38v.33c.01.32-.14.52-.45.61-1.61.46-3.13.4-4.56-.2-.29-.12-.52-.37-.6-.67-.14-.46-.23-1.46-.27-3.01-.04-1.27.35-2.07,1.16-2.42,2.65-1.13,5.41-.1,4.85,3.32-.06.36-.27.53-.63.52-.97-.01-2.07-.01-3.27.03"/>
  <path class="cls-2" d="M358.54,123.5c-.02-.43-.69-.75-1.48-.71-.79.04-1.42.42-1.4.85.02.43.69.75,1.48.71.79-.04,1.42-.42,1.4-.85ZM358.52,121.13l-.1-.42c-.04-.2-.21-.37-.41-.41-1.1-.24-2.07-.26-2.93-.06-.21.04-.33-.04-.38-.24l-.07-.31c-.09-.38.05-.62.42-.74,1.77-.56,3.31-.37,4.6.58.3.22.45.51.45.87l-.04,4.68c0,.37-.19.51-.55.4-.8-.24-1.73-.22-2.76.08-1.24.34-2.49-.51-2.63-1.78-.17-1.63,1.11-2.31,3.87-2.05.34.03.61-.28.53-.6"/>
  <path class="cls-2" d="M362.15,122.17c0-.97.05-1.65.14-2.06.08-.33.27-.59.56-.78,1.29-.82,2.7-.9,4.24-.27.16.06.24.18.24.35v.37c0,.3-.28.53-.58.47-.72-.15-1.52-.16-2.41-.02-.32.06-.53.29-.63.7-.02.06-.03.47-.03,1.23s0,1.18.02,1.24c.11.41.32.64.64.7.88.14,1.69.13,2.41-.01.3-.06.58.16.58.47v.36c0,.18-.08.29-.24.35-1.54.64-2.96.55-4.24-.27-.29-.19-.48-.45-.56-.78-.09-.41-.14-1.09-.14-2.05Z"/>
  <path class="cls-2" d="M174.07,123.1v-3.78c0-.26.21-.47.47-.47h.4c.41,0,.74.33.74.73v4.65c0,.93-.47,1.39-1.4,1.39h-2.99c-.98,0-1.77-.79-1.77-1.76v-4.58c0-.3.15-.45.46-.45h.4c.38,0,.68.3.68.68v3.44c0,.87.44,1.31,1.31,1.31h.54c.77,0,1.16-.39,1.16-1.16Z"/>
</svg>